<svg width="484" height="96" viewBox="0 0 484 96" fill="none" xmlns="http://www.w3.org/2000/svg">
<path d="M167.437 30.59C165.233 30.59 163.242 30.9767 161.463 31.75C159.685 32.4847 158.177 33.5867 156.939 35.056C155.702 36.4867 154.755 38.246 154.097 40.334C153.44 42.3833 153.111 44.7033 153.111 47.294C153.111 50.6967 153.633 53.6547 154.677 56.168C155.76 58.6813 157.345 60.6147 159.433 61.968C161.56 63.3213 164.209 63.998 167.379 63.998C169.197 63.998 170.917 63.8433 172.541 63.534C174.165 63.2247 175.751 62.838 177.297 62.374V66.898C175.751 67.478 174.146 67.9033 172.483 68.174C170.859 68.4447 168.907 68.58 166.625 68.58C162.411 68.58 158.892 67.71 156.069 65.97C153.247 64.23 151.12 61.7553 149.689 58.546C148.297 55.3367 147.601 51.5667 147.601 47.236C147.601 44.104 148.027 41.2427 148.877 38.652C149.767 36.0613 151.043 33.8187 152.705 31.924C154.407 30.0293 156.495 28.5793 158.969 27.574C161.444 26.53 164.286 26.008 167.495 26.008C169.622 26.008 171.671 26.2207 173.643 26.646C175.615 27.0713 177.375 27.6707 178.921 28.444L176.833 32.852C175.557 32.272 174.127 31.75 172.541 31.286C170.995 30.822 169.293 30.59 167.437 30.59ZM216.554 68H210.29L191.556 47.004V68H186.336V26.588H191.556V46.656L209.826 26.588H215.742L197.762 46.714L216.554 68ZM222.247 26.588H227.119V49.324C227.119 50.2907 227.1 51.354 227.061 52.514C227.061 53.6353 227.042 54.7567 227.003 55.878C226.965 56.9993 226.907 58.0047 226.829 58.894C226.791 59.7447 226.752 60.402 226.713 60.866H226.945L249.739 26.588H255.539V68H250.667V45.496C250.667 44.452 250.687 43.3307 250.725 42.132C250.764 40.8947 250.803 39.7153 250.841 38.594C250.919 37.434 250.977 36.4093 251.015 35.52C251.054 34.6307 251.093 33.9733 251.131 33.548H250.899L228.047 68H222.247V26.588ZM279.817 68H274.597V31.17H261.663V26.588H292.693V31.17H279.817V68ZM297.836 68.058C297.217 68.058 296.908 67.7487 296.908 67.13V62.49C296.908 61.8713 297.217 61.562 297.836 61.562H300.388C301.006 61.562 301.316 61.8713 301.316 62.49V67.13C301.316 67.4393 301.219 67.6713 301.026 67.826C300.871 67.9807 300.658 68.058 300.388 68.058H297.836ZM336.533 68L331.545 55.182H315.131L310.201 68H304.923L321.105 26.414H325.803L341.927 68H336.533ZM325.339 38.014C325.223 37.7047 325.03 37.144 324.759 36.332C324.488 35.52 324.218 34.6887 323.947 33.838C323.715 32.9487 323.522 32.272 323.367 31.808C323.174 32.5813 322.961 33.374 322.729 34.186C322.536 34.9593 322.323 35.6747 322.091 36.332C321.898 36.9893 321.724 37.55 321.569 38.014L316.871 50.542H329.979L325.339 38.014ZM365.282 36.912H370.85L357.568 51.876L371.952 68H366.036L352 52.224V68H346.896V36.912H352V51.992L365.282 36.912ZM399.055 41.204H388.905V68H383.859V41.204H373.825V36.912H399.055V41.204ZM409.993 55.878C409.993 56.226 409.974 56.7287 409.935 57.386C409.935 58.0047 409.916 58.6813 409.877 59.416C409.838 60.112 409.8 60.7887 409.761 61.446C409.722 62.0647 409.684 62.5673 409.645 62.954L426.291 36.912H432.555V68H427.799V49.672C427.799 49.0533 427.799 48.2413 427.799 47.236C427.838 46.2307 427.876 45.2447 427.915 44.278C427.954 43.2727 427.992 42.5187 428.031 42.016L411.501 68H405.179V36.912H409.993V55.878ZM467.447 44.742C467.447 46.6753 466.867 48.1833 465.707 49.266C464.547 50.3487 463.058 51.0833 461.241 51.47V51.702C463.174 51.9727 464.856 52.6687 466.287 53.79C467.717 54.8727 468.433 56.574 468.433 58.894C468.433 60.2087 468.181 61.4267 467.679 62.548C467.215 63.6693 466.48 64.636 465.475 65.448C464.469 66.26 463.174 66.898 461.589 67.362C460.003 67.7873 458.089 68 455.847 68H442.449V36.912H455.789C457.993 36.912 459.965 37.1633 461.705 37.666C463.483 38.13 464.875 38.942 465.881 40.102C466.925 41.2233 467.447 42.77 467.447 44.742ZM463.155 58.894C463.155 57.1153 462.478 55.8393 461.125 55.066C459.771 54.2927 457.78 53.906 455.151 53.906H447.553V63.882H455.267C457.819 63.882 459.771 63.5147 461.125 62.78C462.478 62.0067 463.155 60.7113 463.155 58.894ZM462.285 45.38C462.285 43.9107 461.743 42.8473 460.661 42.19C459.617 41.494 457.896 41.146 455.499 41.146H447.553V49.672H454.571C457.084 49.672 458.998 49.324 460.313 48.628C461.627 47.932 462.285 46.8493 462.285 45.38Z" fill="black"/>
<circle cx="64.9091" cy="54.0001" r="33.8182" fill="#0065FF"/>
<circle cx="84" cy="36.5454" r="26.7273" fill="#FB8835" fill-opacity="0.78"/>
<circle cx="43.6364" cy="40.909" r="33.8182" fill="#8F00FF" fill-opacity="0.78"/>
<circle cx="81.8182" cy="69.2727" r="26.7273" fill="#FB3535" fill-opacity="0.78"/>
<circle cx="67.9091" cy="3.54545" r="3.54545" fill="#FB3535" fill-opacity="0.78"/>
<circle cx="114.273" cy="54.2728" r="3.54545" fill="#0065FF"/>
<circle cx="27.5455" cy="84.2728" r="3.54545" fill="#F9A062"/>
<circle cx="114.818" cy="67.9091" r="1.90909" fill="#F96062"/>
<circle cx="1.90909" cy="41.1818" r="1.90909" fill="#A436FF"/>
<rect x="62.7273" y="59.4546" width="3.27273" height="3.27273" rx="1" fill="#0085FF"/>
</svg>
